<svg width="28" height="28" viewBox="0 0 28 28" fill="none" xmlns="http://www.w3.org/2000/svg">
<path d="M10.403 17.7235C9.47386 18.687 8.23533 19.2927 6.90442 19.4347C5.5735 19.5766 4.23508 19.2456 3.12369 18.4998C2.0123 17.7539 1.19883 16.6407 0.82582 15.3553C0.45281 14.0699 0.544052 12.6942 1.08356 11.4692C1.62307 10.2443 2.57643 9.24834 3.77658 8.65579C4.97674 8.06325 6.34714 7.91195 7.64766 8.2284C8.94818 8.54486 10.0959 9.30888 10.8896 10.3866C11.6833 11.4643 12.0725 12.787 11.9889 14.1228" stroke="#272B30" stroke-width="1.2" stroke-linecap="round"/>
<path d="M19.7734 12.7397C21.5714 12.6677 23.3331 13.2593 24.7232 14.402C26.1133 15.5446 27.0348 17.1584 27.3123 18.9363C27.5897 20.7143 27.2038 22.5321 26.228 24.044C25.2522 25.5558 23.7545 26.6561 22.0201 27.1355C20.2857 27.6148 18.4356 27.4397 16.8219 26.6435C15.2082 25.8474 13.9435 24.4856 13.2686 22.8176C12.5937 21.1495 12.5557 19.2915 13.1618 17.5972C13.7678 15.9029 14.9757 14.4906 16.5555 13.629" stroke="#272B30" stroke-width="1.2" stroke-linecap="round"/>
<path d="M12.3877 5.12627C12.184 4.36114 12.2382 3.55018 12.5419 2.81897C12.8457 2.08776 13.382 1.47708 14.0679 1.08149C14.7538 0.685909 15.551 0.527483 16.336 0.630748C17.121 0.734013 17.8501 1.09321 18.4104 1.65271C18.9706 2.21222 19.3308 2.94083 19.4351 3.72572C19.5394 4.51061 19.3821 5.308 18.9874 5.99442C18.5927 6.68084 17.9828 7.21799 17.252 7.52272C16.5212 7.82744 15.7103 7.88273 14.9449 7.68003" stroke="#272B30" stroke-width="1.2" stroke-linecap="round"/>
<path d="M6.5332 13.5332L12.1332 16.3332" stroke="#272B30" stroke-width="1.2" stroke-linecap="round"/>
<path d="M8.8667 11.2002L6.53337 13.5335" stroke="#272B30" stroke-width="1.2" stroke-linecap="round"/>
<path d="M15.8667 4.2002L11.6667 8.4002" stroke="#272B30" stroke-width="1.2" stroke-linecap="round"/>
<path d="M15.8667 4.2002L16.3334 6.06686" stroke="#272B30" stroke-width="1.2" stroke-linecap="round"/>
<path d="M17.2666 9.7998L20.0666 20.0665" stroke="#272B30" stroke-width="1.2" stroke-linecap="round"/>
<path d="M14.9331 17.7334L20.0664 20.0667" stroke="#272B30" stroke-width="1.2" stroke-linecap="round"/>
</svg>
